<svg width="47" height="47" viewBox="0 0 47 47" fill="none" xmlns="http://www.w3.org/2000/svg">
<path d="M0 23.5C0 36.4787 10.5213 47 23.5 47C36.4787 47 47 36.4787 47 23.5C47 10.5213 36.4787 0 23.5 0C10.5213 0 0 10.5213 0 23.5Z" fill="black"/>
<path d="M33.2917 16.6459V20.5626L23.5 24.4792L13.7084 20.5626V16.6459C13.7084 16.3862 13.8115 16.1372 13.9952 15.9535C14.1788 15.7699 14.4278 15.6667 14.6875 15.6667H32.3125C32.5722 15.6667 32.8213 15.7699 33.0049 15.9535C33.1885 16.1372 33.2917 16.3862 33.2917 16.6459ZM13.7084 22.6717V30.3542C13.7084 30.6139 13.8115 30.863 13.9952 31.0466C14.1788 31.2303 14.4278 31.3334 14.6875 31.3334H32.3125C32.5722 31.3334 32.8213 31.2303 33.0049 31.0466C33.1885 30.863 33.2917 30.6139 33.2917 30.3542V22.6717L23.5 26.5884L13.7084 22.6717Z" fill="#F5F5F5"/>
</svg>
