<svg width="47" height="47" viewBox="0 0 47 47" fill="none" xmlns="http://www.w3.org/2000/svg">
<path d="M0 23.5C0 36.4787 10.5213 47 23.5 47C36.4787 47 47 36.4787 47 23.5C47 10.5213 36.4787 0 23.5 0C10.5213 0 0 10.5213 0 23.5Z" fill="#0088CC"/>
<path d="M11.8968 23.0716C18.205 20.3232 22.4114 18.5113 24.5162 17.6358C30.5255 15.1363 31.7742 14.7021 32.5881 14.6876C32.7671 14.6846 33.1674 14.729 33.4266 14.9394C33.6456 15.117 33.7058 15.357 33.7346 15.5254C33.7634 15.6938 33.7993 16.0775 33.7708 16.3772C33.4452 19.7989 32.0361 28.1023 31.3192 31.9346C31.0159 33.5562 30.4186 34.0999 29.8404 34.1531C28.5838 34.2688 27.6295 33.3227 26.4124 32.5248C24.5079 31.2764 23.432 30.4992 21.5833 29.281C19.4469 27.8731 20.8318 27.0993 22.0494 25.8347C22.368 25.5038 27.9047 20.4677 28.0119 20.0109C28.0253 19.9537 28.0377 19.7407 27.9112 19.6283C27.7847 19.5158 27.5979 19.5543 27.4632 19.5849C27.2722 19.6282 24.2297 21.6392 18.3357 25.6178C17.4721 26.2108 16.6899 26.4997 15.989 26.4846C15.2164 26.4679 13.7302 26.0477 12.6253 25.6886C11.2702 25.2481 10.1932 25.0152 10.2869 24.2671C10.3358 23.8774 10.8724 23.4789 11.8968 23.0716Z" fill="#F5F5F5"/>
</svg>
