<svg width="47" height="47" viewBox="0 0 47 47" fill="none" xmlns="http://www.w3.org/2000/svg">
<path d="M47 23.5C47 10.5213 36.4787 0 23.5 0C10.5213 0 0 10.5213 0 23.5C0 36.4787 10.5213 47 23.5 47C36.4787 47 47 36.4787 47 23.5Z" fill="#0077FF"/>
<path d="M11.75 23.03C11.75 17.7112 11.75 15.0557 13.395 13.395C15.0635 11.75 17.719 11.75 23.03 11.75H23.97C29.2888 11.75 31.9443 11.75 33.605 13.395C35.25 15.0635 35.25 17.719 35.25 23.03V23.97C35.25 29.2888 35.25 31.9443 33.605 33.605C31.9365 35.25 29.281 35.25 23.97 35.25H23.03C17.7112 35.25 15.0557 35.25 13.395 33.605C11.75 31.9365 11.75 29.281 11.75 23.97V23.03Z" fill="#F5F5F5"/>
<path d="M24.252 28.6779C18.894 28.6779 15.839 25.0119 15.7137 18.9019H18.4084C18.4945 23.3825 20.4685 25.2782 22.0352 25.6699V18.9019H24.5654V22.7637C26.1085 22.5992 27.7379 20.8367 28.2862 18.894H30.8085C30.6029 19.8997 30.192 20.8521 29.6017 21.6917C29.0113 22.5314 28.2542 23.2403 27.3775 23.7742C28.3558 24.2611 29.2198 24.95 29.9125 25.7952C30.6052 26.6405 31.1108 27.6229 31.396 28.6779H28.6152C28.0199 26.8214 26.5315 25.38 24.5654 25.1842V28.6779H24.2599H24.252Z" fill="#0077FF"/>
</svg>
