<svg width="47" height="47" viewBox="0 0 47 47" fill="none" xmlns="http://www.w3.org/2000/svg">
<path d="M0 23.5C0 36.4787 10.5213 47 23.5 47C36.4787 47 47 36.4787 47 23.5C47 10.5213 36.4787 0 23.5 0C10.5213 0 0 10.5213 0 23.5Z" fill="#25D366"/>
<path fill-rule="evenodd" clip-rule="evenodd" d="M31.725 15.1281C29.5219 12.925 26.5844 11.75 23.5 11.75C17.0375 11.75 11.75 17.0375 11.75 23.5C11.75 25.5562 12.3375 27.6125 13.3656 29.375L11.75 35.25L17.9188 33.6344C19.6813 34.5156 21.5906 35.1031 23.5 35.1031C29.9625 35.1031 35.25 29.8156 35.25 23.3531C35.25 20.2687 33.9281 17.3313 31.725 15.1281ZM23.5 33.1938C21.7375 33.1938 19.975 32.7531 18.5063 31.8719L18.2125 31.725L14.5406 32.7531L15.5688 29.2281L15.275 28.7875C14.2469 27.1719 13.8062 25.4094 13.8062 23.6469C13.8062 18.3594 18.2125 13.9531 23.5 13.9531C26.1437 13.9531 28.4938 14.9812 30.4031 16.7437C32.3125 18.6531 33.1938 21.0031 33.1938 23.6469C33.1938 28.7875 28.9344 33.1938 23.5 33.1938ZM28.7875 25.85C28.4938 25.7031 27.025 24.9688 26.7313 24.9688C26.4375 24.8219 26.2906 24.8219 26.1437 25.1156C25.9969 25.4094 25.4094 25.9969 25.2625 26.2906C25.1156 26.4375 24.9687 26.4375 24.675 26.4375C24.3812 26.2906 23.5 25.9969 22.325 24.9688C21.4438 24.2344 20.8563 23.2063 20.7094 22.9125C20.5625 22.6188 20.7094 22.4719 20.8563 22.325C21.0031 22.1781 21.15 22.0312 21.2969 21.8844C21.4438 21.7375 21.4438 21.5906 21.5906 21.4438C21.7375 21.2969 21.5906 21.15 21.5906 21.0031C21.5906 20.8563 21.0031 19.3875 20.7094 18.8C20.5625 18.3594 20.2688 18.3594 20.1219 18.3594C19.975 18.3594 19.8281 18.3594 19.5344 18.3594C19.3875 18.3594 19.0937 18.3594 18.8 18.6531C18.5062 18.9469 17.7719 19.6812 17.7719 21.15C17.7719 22.6187 18.8 23.9406 18.9469 24.2344C19.0937 24.3813 21.0031 27.4656 23.9406 28.6406C26.4375 29.6687 26.8781 29.375 27.4656 29.375C28.0531 29.375 29.2281 28.6406 29.375 28.0531C29.6688 27.3188 29.6688 26.7313 29.5219 26.7313C29.375 25.9969 29.0813 25.9969 28.7875 25.85Z" fill="#F5F5F5"/>
</svg>
